# xmcd CD database file
#
# Track frame offsets:
#	183
#	15993
#	33808
#	57868
#	80163
#	100140
#	120778
#	137445
#
# Disc length: 2129 seconds
#
# Revision: 2
# Processed by: cddbd v1.4PL0 Copyright (c) Steve Scherf et al.
# Submitted via: CDex 1.50
#
DISCID=51084f08
DTITLE=Brenda Russell - Get Here
DYEAR=1986
DGENRE=Soul
TTITLE0=Gravity
TTITLE1=Just a Believer
TTITLE2=Piano in the Dark
TTITLE3=This Time I Need You
TTITLE4=Make My Day
TTITLE5=Le Restaurant
TTITLE6=Midnight Eyes
TTITLE7=Get Here
EXTD=YEAR: 1986
EXTT0=
EXTT1=
EXTT2=
EXTT3=
EXTT4=
EXTT5=
EXTT6=
EXTT7=
PLAYORDER=
